<?xml version="1.0" encoding="utf-8"?>
<!-- Generator: Adobe Illustrator 22.1.0, SVG Export Plug-In . SVG Version: 6.00 Build 0)  -->
<svg version="1.1" id="Layer_1" xmlns="http://www.w3.org/2000/svg" xmlns:xlink="http://www.w3.org/1999/xlink" x="0px" y="0px"
	 viewBox="0 0 632 512" style="enable-background:new 0 0 632 512;" xml:space="preserve">
<style type="text/css">
	.st0{display:none;}
	.st1{display:inline;}
	.st2{fill:#DD636E;}
	.st3{fill:#FECBAA;}
	.st4{fill:#83D9FF;}
	.st5{fill:#FFAE85;}
	.st6{fill:#73C9EF;}
	.st7{fill:#E4EAF8;}
	.st8{display:inline;fill:#DD636E;}
	.st9{display:inline;fill:#FECBAA;}
	.st10{display:inline;fill:#83D9FF;}
	.st11{display:inline;fill:#FFAE85;}
	.st12{font-family:'ArialMT';}
	.st13{font-size:12px;}
</style>
<g id="Layer_1_2_">
	<g id="Layer_1_1_">
		<g id="rotate" class="st0">
			<g class="st1">
				<g>
					<path class="st2" d="M532.7,164c-3.6,0-6.6,2.9-6.6,6.6v24c-33.8-32.7-87.7-31.9-120.5,1.9c-15.4,15.9-24,37.3-24,59.4
						c0,3.6,2.9,6.6,6.6,6.6s6.6-2.9,6.6-6.6c0-39.9,32.4-72.2,72.2-72.2c20.3,0,39.6,8.5,53.3,23.5l-29.1,9.7
						c-3.4,1.1-5.3,4.9-4.2,8.3c1.1,3.4,4.9,5.3,8.3,4.2l39.4-13.1c2.7-0.9,4.5-3.4,4.5-6.3v-39.4C539.2,166.9,536.3,164,532.7,164z
						"/>
				</g>
			</g>
			<g class="st1">
				<g>
					<path class="st2" d="M545.8,249.4c-3.6,0-6.6,2.9-6.6,6.6c0,39.9-32.4,72.2-72.2,72.2c-20.3,0-39.6-8.5-53.3-23.5l29.1-9.7
						c3.4-1.1,5.3-4.9,4.2-8.3c-1.1-3.4-4.9-5.3-8.3-4.2l-39.4,13.1c-2.7,0.9-4.5,3.4-4.5,6.3v39.4c0,3.6,2.9,6.6,6.6,6.6
						s6.6-2.9,6.6-6.6v-24c33.8,32.7,87.7,31.9,120.5-1.9c15.4-15.9,24-37.3,24-59.4C552.4,252.3,549.4,249.4,545.8,249.4z"/>
				</g>
			</g>
		</g>
		<g id="hand">
			<path class="st3" d="M34.5,177.1v90c0,19.2,2.9,38.2,8.5,56.6l15,48.9c5.6,18.3,8.5,37.4,8.5,56.6v11.2h176.4v-16.5
				c0-15.7,1.9-31.4,5.7-46.7l20.1-80.4c4.1-16.5,6.2-33.5,6.2-50.5V121c0-13-9.8-24.7-22.8-25.4c-13.9-0.7-25.3,10.3-25.3,24V56.9
				c0-13-9.8-24.7-22.8-25.4c-13.9-0.7-25.3,10.3-25.3,24v-24c0-13.7-11.5-24.7-25.3-24c-13,0.7-22.8,12.4-22.8,25.4v22.7
				c0-13.7-11.5-24.7-25.3-24C92.3,32.3,82.5,44,82.5,57v118.9c0-13.7-11.5-24.7-25.3-24C44.2,152.4,34.5,164.1,34.5,177.1z"/>
			<path class="st4" d="M50.5,456.3v32.1c0,8.9,7.2,16,16,16h176.4c8.9,0,16-7.2,16-16v-32.1c0-8.9-7.2-16-16-16H66.5
				C57.7,440.3,50.5,447.4,50.5,456.3z"/>
			<g>
				<path class="st5" d="M66.5,153.1v86.8c0,4.4,3.6,8,8,8s8-3.6,8-8v-64.1C82.6,165.3,75.9,156.4,66.5,153.1L66.5,153.1z"/>
				<path class="st5" d="M130.7,207.8V55.5c0-10.5-6.7-19.3-16-22.6v174.9c0,4.4,3.6,8,8,8S130.7,212.2,130.7,207.8z"/>
				<path class="st5" d="M178.7,207.8V55.5v-24c0-10.5-6.7-19.3-16-22.6v199c0,4.4,3.6,8,8,8S178.7,212.2,178.7,207.8z"/>
				<path class="st5" d="M226.8,215.8v-96.2V56.9c0-10.6-6.6-20.3-16-23.8v182.8c0,4.4,3.6,8,8,8
					C223.3,223.8,226.8,220.2,226.8,215.8z"/>
				<path class="st5" d="M206.5,408.2H65.2c0.8,6.9,1.3,13.9,1.3,20.9v11.2h160.3h7h9v-16.4c0-15.7,1.9-31.4,5.7-46.7l20.1-80.4
					c4.1-16.5,6.2-33.5,6.2-50.5V121c0-10.6-6.4-20.5-16-24v149.3c0,17-2.1,34-6.2,50.5l-20.1,80.4c-0.9,3.6-1.7,7.2-2.3,10.8
					C228.1,399.6,218.3,408.2,206.5,408.2L206.5,408.2z"/>
			</g>
			<path class="st6" d="M186.8,504.4h56.1c8.9,0,16-7.2,16-16v-32.1c0-8.9-7.2-16-16-16h-56.1c8.9,0,16,7.2,16,16v32.1
				C202.8,497.2,195.6,504.4,186.8,504.4z"/>
			<circle class="st7" cx="219.8" cy="471.3" r="12.8"/>
			<path d="M219.9,458.9c-1.5,2.6-0.6,5.9,2,7.4c1.9,1.1,3.1,3.1,3.1,5.3c0,3.4-2.8,6.1-6.1,6.1c-3.4,0-6.1-2.8-6.1-6.1
				c0-3-2.4-5.4-5.4-5.4s-5.4,2.4-5.4,5.4c0,9.3,7.6,16.9,16.9,16.9c9.3,0,16.9-7.6,16.9-16.9c0-6-3.2-11.7-8.5-14.7
				C224.7,455.4,221.4,456.3,219.9,458.9z"/>
			<path d="M27,177.1v90c0,19.9,3,39.7,8.8,58.8l15,48.9c5.4,17.6,8.2,35.9,8.2,54.4v4.9c-9.3,3.1-16,11.9-16,22.3v32.1
				c0,13,10.6,23.5,23.5,23.5h176.4c13,0,23.5-10.6,23.5-23.5v-32.1c0-10.4-6.7-19.2-16-22.3v-10.2c0-15.1,1.9-30.2,5.5-44.8
				l20.1-80.4c4.3-17.1,6.4-34.7,6.4-52.4V121c0-17.6-13.1-32-29.9-32.9c-6.5-0.3-12.8,1.3-18.2,4.6V56.9c0-17.6-13.1-32-29.9-32.9
				c-6.6-0.3-12.9,1.3-18.4,4.7c-0.7-7.6-4.1-14.8-9.7-20.1c-6.3-6-14.6-9.1-23.4-8.6c-15.4,0.8-27.8,13.1-29.6,28.8
				c-5.5-3.4-11.8-5.1-18.5-4.8c-16.6,0.9-29.7,15.3-29.7,32.9v92c-5.4-3.4-11.7-5-18.2-4.6C40.1,145.1,27,159.5,27,177.1z
				 M58,488.4v-32.1c0-4.7,3.8-8.5,8.5-8.5h24c4.1,0,7.5-3.4,7.5-7.5s-3.4-7.5-7.5-7.5H74v-3.7c0-4.5-0.2-9-0.5-13.4h162
				c-0.1,2.7-0.2,5.4-0.2,8.2v8.9H122.6c-4.1,0-7.5,3.4-7.5,7.5s3.4,7.5,7.5,7.5h120.2c4.7,0,8.5,3.8,8.5,8.5v32.1
				c0,4.7-3.8,8.5-8.5,8.5H66.5C61.8,496.9,58,493.1,58,488.4L58,488.4z M42,267.1L42,267.1v-90c0-9.4,7-17.4,15.6-17.9
				c4.6-0.2,9,1.4,12.3,4.5c3.3,3.2,5.2,7.4,5.2,12v64.2c0,4.1,3.4,7.5,7.5,7.5s7.5-3.4,7.5-7.5v-183c0-9.4,7-17.4,15.6-17.9
				c4.6-0.2,9,1.4,12.3,4.5c3.3,3.2,5.2,7.4,5.2,12v104.2c0,4.1,3.4,7.5,7.5,7.5c4.1,0,7.5-3.4,7.5-7.5V32.8c0-9.4,7-17.4,15.6-17.9
				c4.6-0.2,9,1.4,12.3,4.5c3.3,3.2,5.2,7.4,5.2,12v176.4c0,4.1,3.4,7.5,7.5,7.5s7.5-3.4,7.5-7.5V55.5c0-4.6,1.8-8.8,5.2-12
				c3.3-3.2,7.7-4.8,12.3-4.5c8.6,0.5,15.6,8.5,15.6,17.9v159c0,4.1,3.4,7.5,7.5,7.5s7.5-3.4,7.5-7.5v-96.2c0-4.6,1.8-8.8,5.2-12
				c3.3-3.2,7.7-4.8,12.3-4.5c8.6,0.5,15.6,8.5,15.6,17.9v125.3c0,16.4-2,32.8-6,48.7l-20.1,80.4c-2.1,8.3-3.6,16.8-4.6,25.3H72
				c-1.5-10.3-3.7-20.4-6.8-30.4l-15-48.9C44.7,303.8,42,285.5,42,267.1L42,267.1z"/>
			<path d="M123.2,191.8v16c0,4.1,3.4,7.5,7.5,7.5c4.1,0,7.5-3.4,7.5-7.5v-16c0-4.1-3.4-7.5-7.5-7.5S123.2,187.6,123.2,191.8z"/>
		</g>
		<g id="Layer_3" class="st0">
			<path class="st8" d="M378.2,306c-2.1,2.1-2.1,5.6-0.1,7.8c2.2,2.1,5.6,2.1,7.7,0.1l39.7-39.2L424.7,405c0,3,2.4,5.5,5.5,5.4
				c3,0,5.6-2.3,5.5-5.4l0.8-130.3l39.2,39.7c2.2,2.1,5.7,2.1,7.8,0.1c2.2-2.1,2.2-5.7,0.1-7.8l-48.5-49.1c-2.1-2.1-5.6-2.1-7.7-0.1
				L378.2,306z"/>
		</g>
		<g id="Layer_4" class="st0">
			<path class="st8" d="M563.1,372.4c2.2-2.1,2.2-5.5,0-7.8c-2.1-2.2-5.6-2.1-7.6,0L515.8,404l0.4-130.2c0.1-3-2.4-5.4-5.5-5.4
				s-5.6,2.4-5.6,5.5l-0.4,130.2l-39.2-39.6c-2.2-2.1-5.6-2.1-7.8,0c-2.2,2.1-2.2,5.7,0,7.8l48.7,48.9c2.1,2.2,5.5,2.2,7.6,0
				L563.1,372.4z"/>
		</g>
	</g>
	<g id="sideVIew" class="st0">
		<path class="st9" d="M330.9,102.6H225.3c-48.5,0-83.2,56.4-83.2,56.4c0-19.5-15.8-15.4-35.4-15.4H79.8v97.3h62.3
			c0,0,22.1,38.5,46.1,34.1l79.5-14.6c4.4-0.8,8.5-2.9,11.8-6.1l68-66.9c5.4-5.4,8.2-12.3,8.6-19.3l2.6-0.8h111.7
			c17.9,0,32.3-14.5,32.3-32.3v-0.1c0-17.9-14.5-32.3-32.3-32.3h-50.8"/>
		<path class="st10" d="M25.6,143.7h54.2V241H25.6V143.7z"/>
		<path class="st11" d="M107.1,174.3c0-6.4,1-11,3.8-14.2c0.8-1,5.9-6.6,11.3-5.4c5.3,1.1,9.7,19.2,16.2,19.2
			c9.9-1.5,14-1.7,19.5-8.2c8.3-9.7,16.9-17.7,23.2-21.2c7.1-4,11.2-8.9,14.8-11c13.3-7.9,19-9,26-10.5c8.1-1.7,21.6-5.4,31.5-4.5
			c8.6,0.8,35,0.2,46.5,0.5l197.5,1c20-20.5-126.7-18.4-137.2-18.4L273,99.7c-16.9,0-42.6,4.3-59,8.4l-76.7,34.5
			c-15.3,3.8-30.1-4.5-45.8-4.5H75.1v9v7v85.8l17.8,0.2c7,0,8.3-1,15.2-0.2L107.1,174.3z"/>
		<path class="st1" d="M386.3,102.6c0-5.5-4.5-10-10-10s-10,4.5-10,10s4.5,10,10,10l0,0C381.8,112.6,386.3,108.1,386.3,102.6z"/>
		<path class="st1" d="M512.6,135.1V135c0-23.3-19-42.3-42.3-42.3h-50.8c-5.5,0-10,4.5-10,10s4.5,10,10,10h50.8
			c12.3,0,22.3,10,22.3,22.3v0.1c0,12.3-10,22.3-22.3,22.3H364.9c-1.7-6.9-5.2-13.2-10.4-18.4l-0.1-0.1
			c-7.7-7.6-17.7-11.5-27.8-11.5c-10.1,0-20.1,3.8-27.8,11.5l-57.7,57.7c-3.9,3.9-3.9,10.2,0,14.1c3.9,3.9,10.2,3.9,14.1,0
			l57.7-57.7c7.5-7.5,19.8-7.5,27.3,0l0.1,0.1c3.6,3.6,5.6,8.5,5.6,13.6c0,0.2,0,0.3,0,0.5s0,0.3,0,0.5c-0.2,4.8-2.2,9.3-5.6,12.7
			l-67.9,66.8c-1.8,1.8-4.1,2.9-6.5,3.4l-79.5,14.6c-12.8,2.3-29.6-18.7-35.7-29.3c-1.8-3.1-5.1-5-8.7-5H89.8v-77.3
			c0,0,23.2-0.1,26.2-0.2c4.5-0.2,13.9-0.5,15.4,1c0,0,0.8,1,0.8,4.6c0,4.5,3,8.4,7.3,9.6c4.3,1.2,8.9-0.6,11.2-4.4
			c0.3-0.5,32.5-51.7,74.7-51.7H331c5.5,0,10-4.5,10-10s-4.5-10-10-10H225.3c-37.2,0-66.3,28.4-81.1,46.5c-7.5-6.4-18-6-29-5.7
			c-2.8,0.1-89.6,0.2-89.6,0.2c-5.5,0-10,4.5-10,10v97.3c0,5.5,4.5,10,10,10h110.9c7.8,11.8,28.5,38.5,53.5,34l79.5-14.6
			c6.4-1.2,12.3-4.2,17-8.8l68-66.9c4.9-4.9,8.3-10.8,10.1-17.2h105.7C493.6,177.4,512.6,158.4,512.6,135.1z M35.6,153.7h34.2V231
			H35.6V153.7z"/>
	</g>
	<g id="fist">
		<path class="st3" d="M403.8,93.9c12,2.4,27.9,28,27.9,28.1s0.1,0.1,0.1,0c0.4-16.7,14.1-30,30.9-30c15.8,0,28.7,11.9,30.5,27.2
			c0,0.1,0.1,0.1,0.1,0c5.6-5.9,13.5-9.6,22.3-9.6c15.8,0,28.7,11.9,30.5,27.2c0,0.1,0.1,0.1,0.1,0c5.6-5.9,13.4-9.6,22.1-9.6
			c17.2-0.1,31,14.4,31,31.6v116.4c0,18.8,5.5,41.7,0.6,59.8l-7.9,58.6c0,0,2.2,45.9,2.1,45.9l-178.8,3.2l2.4-48.1l-73-105.1
			c-12.2-19.6-18.7-42.3-18.7-65.4V189c0-19.5,15.8-35.3,35.3-35.3h8.7c0,0,0.1,0,0.1-0.1l-0.4-27.8
			C379.3,105.6,393.5,91.9,403.8,93.9z"/>
		<path class="st5" d="M556.4,409.5H415.3c0.8,6.9,1.3,13.9,1.3,20.8v11.2h160h7h9v-16.3c0-15.7,1.9-31.3,5.7-46.6l3.7-70.2
			c4.1-16.4,3-36.2,3-53.2l-4.7-94c0-10.6-8.6-21.4-18.2-24.9l4.1,111c0.5,23,5.4,35.7,1.6,56.4l-8,75.7c-1.4,4.9-3.1,11.4-3.7,15
			C574,406,568.2,409.5,556.4,409.5L556.4,409.5z"/>
		<path class="st4" d="M398.6,456.8v32.1c0,8.9,7.2,16,16,16H591c8.9,0,16-7.2,16-16v-32.1c0-8.9-7.2-16-16-16H414.6
			C405.8,440.8,398.6,447.9,398.6,456.8z"/>
		<path class="st6" d="M534.9,504.9H591c8.9,0,16-7.2,16-16v-32.1c0-8.9-7.2-16-16-16h-56.1c8.9,0,16,7.2,16,16v32.1
			C550.9,497.7,543.7,504.9,534.9,504.9z"/>
		<circle class="st7" cx="567.9" cy="471.8" r="12.8"/>
		<path d="M568,459.3c-1.5,2.6-0.6,5.9,2,7.4c1.9,1.1,3.1,3.1,3.1,5.3c0,3.4-2.8,6.1-6.1,6.1s-6.1-2.8-6.1-6.1c0-3-2.4-5.4-5.4-5.4
			s-5.4,2.4-5.4,5.4c0,9.3,7.6,16.9,16.9,16.9s16.9-7.6,16.9-16.9c0-6-3.2-11.7-8.5-14.7C572.8,455.9,569.5,456.8,568,459.3z"/>
		<path class="st5" d="M362.8,154.2c-5.3,0-10.2,1.5-14.4,4v35.7c0,6,4.8,10.8,10.8,10.8s10.8-4.8,10.8-10.8v-39.7H362.8z"/>
		<path class="st5" d="M414.1,104.5V151c0,6,4.8,10.8,10.8,10.8s10.8-4.8,10.8-10.8v-24.7c-0.1,0.1-0.2,0.2-0.3,0.3
			C434.2,115.1,425.4,106.1,414.1,104.5z"/>
		<path class="st5" d="M469.6,108.5v37.7c0,10.4,4.8,15.2,10.8,15.2s10.8-4.8,10.8-10.8v-24.8c-0.1,0.1-0.2,0.2-0.3,0.3
			C489.7,114.7,480.9,105.7,469.6,108.5z"/>
		<path class="st5" d="M522,121.9v39.3c0,6,4.8,10.8,10.8,10.8s10.8-4.8,10.8-10.8v-17.5c-0.1,0.1-0.2,0.2-0.3,0.2
			C542,132.6,533.2,123.6,522,121.9z"/>
		<g>
			<path d="M399.5,89.1c0.9,0.4,3.5,1.5,7.8,3.4l0.9,0.4c0.4,0.2,0.7,0.3,1.1,0.5l2.1,0.9c0.5,0.2,1.1,0.5,1.6,0.7l2.4,1
				c0.7,0.3,1.5,0.6,2.2,1l2.1,0.9c0.8,0.4,1.6,0.7,2.5,1.1l7.4,3.2c-1.4-2.3-3.8-5.3-7.7-8c-9.2-6.4-19.8-5.6-22.7-5.3
				c0,0,0.1,0,0.2,0.1L399.5,89.1z"/>
			<path d="M599,434.8v-10.2c0-15.1,1.9-30.2,5.5-44.8l5.6-33.3l1.5-18.5c0.9-26.9-1.5-46.7-1.5-64.5l-4.5-104.2
				c0-19.8-16.3-36-37.1-37c-6.2-0.3-12.4,0.8-17.9,3.1c-1.1,0.4-2.3,0-2.9-0.9c-6.7-11-19.5-18.3-34-18.3c-5.6,0-11,1.1-15.9,3.1
				c-1.1,0.4-2.3,0.1-2.9-0.9c-6.7-11-19.5-18.2-34-18.2c-7,0-13.5,1.7-19.2,4.6c-1.5,0.8-12,9-12,7.4c-2.6-1.2-5.1-2.2-7.4-3.2
				l-2.5-1.1c-0.7-0.3-1.4-0.6-2.1-0.9l-2.2-1c-0.8-0.4-1.6-0.7-2.4-1l-1.6-0.7c-0.7-0.3-1.4-0.6-2.1-0.9l-1.1-0.5
				c-0.3-0.1-0.6-0.3-0.9-0.4l-7.8-3.4h-0.1l-0.2-0.1c-20.8,1-39.2,16.2-39.2,36v19.3c0,1.2-1,2.1-2.3,2.1l0,0
				c-23.1,0-41.8,17-41.8,38v33.5c0,22.5,6.9,44.4,20,63.5l62.4,90.8l1.2,3.4c5.4,17.6,8.2,35.9,8.2,54.4v4.9
				c-9.3,3.1-16,11.9-16,22.3v32.1c0,13,10.6,23.5,23.5,23.5h176.4c13,0,23.5-10.6,23.5-23.5v-32.1C615,446.7,608.3,437.9,599,434.8
				z M349.8,273.4c-11.5-16.7-17.5-35.9-17.5-55.5v-33.5c0-12.7,11.3-23,25.3-23l0,0c1.3,0,2.3,0.9,2.3,2.1v31.3
				c0,2.2,1.2,4.2,3.2,5.3c6.5,3.6,13.3-0.5,13.3-6.1v-73.3c0-11.6,7.6-19.2,19.3-19.8c8.4-0.4,20.5,5.7,23,13.3
				c0.9,2.9,2.2,7.3,2.9,12.5c0,2.2,1.2,4.2,3.2,5.3c6.5,3.6,13.3-0.5,13.3-6.1c0-11.3,10.1-20.6,22.6-20.6
				c11.6,0,21.3,8.1,22.4,18.7c0.1,1.1,0.6,2.2,1.4,3.1c3.6,4.1,9.5,3.9,12.8,0.7c4.3-4.2,10.2-6.5,16.4-6.5
				c11.6,0,21.3,8.1,22.4,18.7c0.1,1.1,0.6,2.2,1.4,3.1c3.6,4.1,9.5,3.9,12.8,0.7c4.6-4.5,10.9-6.8,17.6-6.5
				c11.8,0.5,26.4,9.6,26.4,21.2L598,262c0,16.4,1.1,35.5-0.2,54.5l-2.9,28.5l-4.7,31.2c-2.1,8.3-3.6,16.8-4.6,25.3h-165
				c-1.5-10.3-3.7-20.4-6.8-30.4L349.8,273.4z M599.9,489.1c0,4.7-3.8,8.5-8.5,8.5H415.1c-4.7,0-8.5-3.8-8.5-8.5V457
				c0-4.7,3.8-8.5,8.5-8.5h24c4.1,0,7.5-3.4,7.5-7.5s-3.4-7.5-7.5-7.5h-16.5v-3.7c0-4.5-0.2-9-0.5-13.4h162
				c-0.1,2.7-0.2,5.4-0.2,8.2v8.9H471.2c-4.1,0-7.5,3.4-7.5,7.5s3.4,7.5,7.5,7.5h120.2c4.7,0,8.5,3.8,8.5,8.5V489.1z"/>
		</g>
		<path d="M485.7,159.9v16c0,4.1,3.4,7.5,7.5,7.5s7.5-3.4,7.5-7.5v-16c0-4.1-3.4-7.5-7.5-7.5S485.7,155.8,485.7,159.9z"/>
		<path d="M429.6,159.9v16c0,4.1,3.4,7.5,7.5,7.5s7.5-3.4,7.5-7.5v-16c0-4.1-3.4-7.5-7.5-7.5S429.6,155.8,429.6,159.9z"/>
		<circle cx="541.3" cy="175.9" r="7.5"/>
	</g>
	<text transform="matrix(1 0 0 1 585.4275 29)" class="st12 st13"> </text>
</g>
<g id="Layer_2_1_" class="st0">
	<g id="rotate_1_" class="st1">
		<g>
			<g>
				<path class="st2" d="M388.3,170.6V210c0,2.9,1.8,5.4,4.5,6.3l39.4,13.1c3.4,1.1,7.2-0.8,8.3-4.2c1.1-3.4-0.8-7.2-4.2-8.3
					l-29.1-9.7c13.7-15,33-23.5,53.3-23.5c39.8,0,72.2,32.3,72.2,72.2c0,3.7,2.9,6.6,6.6,6.6s6.6-3,6.6-6.6c0-22.1-8.6-43.5-24-59.4
					c-32.8-33.8-86.7-34.6-120.5-1.9v-24c0-3.7-3-6.6-6.6-6.6S388.3,167,388.3,170.6z"/>
			</g>
		</g>
		<g>
			<g>
				<path class="st2" d="M375,256c0,22.1,8.6,43.5,24,59.4c32.8,33.8,86.7,34.6,120.5,1.9v24c0,3.7,2.9,6.6,6.6,6.6s6.6-3,6.6-6.6
					v-39.4c0-2.9-1.8-5.4-4.5-6.3l-39.4-13.1c-3.4-1.1-7.2,0.8-8.3,4.2c-1.1,3.4,0.8,7.2,4.2,8.3l29.1,9.7
					c-13.7,15-33,23.5-53.3,23.5c-39.8,0-72.2-32.3-72.2-72.2c0-3.7-3-6.6-6.6-6.6C378.1,249.5,375.1,252.4,375,256z"/>
			</g>
		</g>
	</g>
</g>
</svg>
