<?xml version="1.0" encoding="utf-8"?>
<!-- Generator: Adobe Illustrator 22.1.0, SVG Export Plug-In . SVG Version: 6.00 Build 0)  -->
<svg version="1.1" id="Layer_2_1_" xmlns="http://www.w3.org/2000/svg" xmlns:xlink="http://www.w3.org/1999/xlink" x="0px" y="0px"
	 viewBox="0 0 512 562" style="enable-background:new 0 0 512 562;" xml:space="preserve">
<style type="text/css">
	.st0{fill:#E8F3FC;}
	.st1{fill:#B7DBF6;}
	.st2{fill:#06DAF7;}
	.st3{fill:#284CB2;}
	.st4{fill:#FFD15C;}
	.st5{fill:#FFFFFF;}
	.st6{fill:#344A5E;}
	.st7{fill:#415A6B;}
	.st8{fill:#FECBAA;}
	.st9{fill:#83D9FF;}
	.st10{fill:#FFAE85;}
</style>
<path class="st0" d="M489,429.7H23c-8.8,0-16-7.2-16-16v-27.8L87.1,278H425l80,107.9v27.8C505,422.5,497.8,429.7,489,429.7z"/>
<path class="st1" d="M455.4,319.1h-97.3L341,278h-14.6c0,0.9,0.2,1.8,0.5,2.7l16,38.3h-80.8v-41h-14v41h-80.9l16-38.3
	c0.4-0.9,0.5-1.8,0.5-2.7h-14.6L152,319H56.6l-9.4,12.6c1.2,0.9,2.7,1.4,4.2,1.4h94.9l-20.9,50.1c-1.5,3.6,0.2,7.7,3.8,9.2
	c3.6,1.5,7.7-0.2,9.2-3.8l0,0l23.2-55.5h86.7v52.8c0,3.9,3.1,7,7,7s7-3.1,7-7V333H349l23.2,55.5c1.5,3.6,5.6,5.3,9.2,3.8
	s5.3-5.6,3.8-9.2l0,0L364.3,333h94.9c2,0,3.9-0.9,5.2-2.4L455.4,319.1z"/>
<path class="st2" d="M23,429.7h466c8.8,0,16-7.2,16-16v-27.8H7v27.8C7,422.5,14.2,429.7,23,429.7z"/>
<path class="st3" d="M222,429.7h68V487h-68V429.7z"/>
<path class="st3" d="M362.3,555H149.7v-34l40-34h132.5l40,34L362.3,555L362.3,555z"/>
<path class="st4" d="M268,86c1.3-4.4,3.9-8.3,7.4-11.3c6.6-5.4,10.7-13.8,10.7-22.9c0-17-14.2-31-31.7-30.1
	c-15.5,0.7-28.1,13.8-28.6,29.2c-0.2,9.6,3.9,18.1,10.7,23.8c3.7,3.1,6.4,7,7.6,11.3L268,86L268,86z"/>
<path class="st5" d="M253.2,86.4h2l-8.7-32.5c0.2,0,0.5,0,0.7,0c1.1,0,2.2-0.5,3.1-1.3c0.5-0.5,0.9-0.7,1.5-0.7s1.1,0.2,1.5,0.7
	c1.5,1.8,4.1,1.8,5.7,0c0.5-0.5,0.9-0.7,1.5-0.7c0.5,0,1.1,0.2,1.5,0.7c0.9,0.9,1.8,1.3,3.1,1.3c0.2,0,0.5,0,0.7,0l-8.5,32.5h2
	l8.9-34c0-0.5,0-0.9-0.5-1.1c-0.5-0.2-0.9,0-1.1,0.2c-0.5,0.5-0.9,0.7-1.3,0.7c-0.7,0-1.1-0.2-1.8-0.7c-0.9-0.9-1.8-1.3-2.8-1.3
	c-1.1,0-2,0.5-2.8,1.3c-0.9,0.9-2.2,0.9-3.1,0c-0.7-0.9-1.8-1.3-2.8-1.3l0,0c-1.1,0-2.2,0.5-2.8,1.3c-0.5,0.5-1.1,0.7-1.8,0.7
	c-0.5,0-1.1-0.2-1.3-0.7c-0.2-0.2-0.7-0.5-1.1-0.2c-0.5,0.2-0.7,0.7-0.5,1.1L253.2,86.4z"/>
<g>
	<path class="st6" d="M249.2,106c1.1,2.6,3.7,4.6,6.8,4.6c3.1,0,5.7-2,6.8-4.6H249.2z"/>
	<path class="st6" d="M264.1,106.3h-15.9c-2.2,0-3.9-1.8-3.9-3.9V85.8H268v16.6C268,104.5,266.2,106.3,264.1,106.3z"/>
</g>
<g>
	<path class="st7" d="M267.8,94h-23.5c-1.3,0-2.4-1.1-2.4-2.4l0,0c0-1.3,1.1-2.4,2.4-2.4h23.5c1.3,0,2.4,1.1,2.4,2.4l0,0
		C270.2,93,269.1,94,267.8,94z"/>
	<path class="st7" d="M267.8,101.7h-23.5c-1.3,0-2.4-1.1-2.4-2.4l0,0c0-1.3,1.1-2.4,2.4-2.4h23.5c1.3,0,2.4,1.1,2.4,2.4l0,0
		C270.2,100.6,269.1,101.7,267.8,101.7z"/>
</g>
<g>
	<path class="st4" d="M256,5.9c-1.1,0-2.2,0.9-2.2,2.2v7.4c0,1.1,0.9,2.2,2.2,2.2c1.3,0,2.2-0.9,2.2-2.2V8.1
		C258.2,6.8,257.1,5.9,256,5.9z"/>
	<path class="st4" d="M226.8,19.2c-0.9-0.9-2.2-0.9-3.1,0c-0.9,0.9-0.9,2.2,0,3.1l5.2,5.2c0.9,0.9,2.2,0.9,3.1,0
		c0.9-0.9,0.9-2.2,0-3.1L226.8,19.2z"/>
	<path class="st4" d="M220,49.3h-7.4c-1.1,0-2.2,0.9-2.2,2.2l0,0c0,1.1,0.9,2.2,2.2,2.2h7.4c1.1,0,2.2-0.9,2.2-2.2l0,0
		C222.2,50.4,221.1,49.3,220,49.3z"/>
	<path class="st4" d="M228.9,75.5l-5.2,5.2c-0.9,0.9-0.9,2.2,0,3.1c0.9,0.9,2.2,0.9,3.1,0l5.2-5.2c0.9-0.9,0.9-2.2,0-3.1
		C231.2,74.6,229.8,74.6,228.9,75.5z"/>
	<path class="st4" d="M283.1,75.5c-0.9-0.9-2.2-0.9-3.1,0c-0.9,0.9-0.9,2.2,0,3.1l5.2,5.2c0.9,0.9,2.2,0.9,3.1,0
		c0.9-0.9,0.9-2.2,0-3.1L283.1,75.5z"/>
	<path class="st4" d="M299.4,49.3H292c-1.1,0-2.2,0.9-2.2,2.2l0,0c0,1.1,0.9,2.2,2.2,2.2h7.4c1.1,0,2.2-0.9,2.2-2.2l0,0
		C301.6,50.4,300.7,49.3,299.4,49.3z"/>
	<path class="st4" d="M285.2,19.2l-5.2,5.2c-0.9,0.9-0.9,2.2,0,3.1c0.9,0.9,2.2,0.9,3.1,0l5.2-5.2c0.9-0.9,0.9-2.2,0-3.1
		C287.4,18.3,286.1,18.4,285.2,19.2z"/>
</g>
<g id="sideVIew">
	
		<image style="overflow:visible;opacity:0.69;" width="171" height="99" xlink:href="F138517B23842526.png"  transform="matrix(1 0 0 1 175.4882 278.4882)">
	</image>
	<g>
		<g>
			<path class="st8" d="M270.2,208h-25.3c-11.6,0-20,13.5-20,13.5c0-4.7-3.8-3.7-8.5-3.7H210v23.4h15c0,0,5.3,9.2,11.1,8.2l19.1-3.5
				c1.1-0.2,2-0.7,2.8-1.5l16.3-16.1c1.3-1.3,2-3,2.1-4.6l0.6-0.2h26.8c4.3,0,7.8-3.5,7.8-7.8v0c0-4.3-3.5-7.8-7.8-7.8h-12.2"/>
			<path class="st9" d="M197,217.9h13v23.4h-13V217.9z"/>
			<path class="st10" d="M216.5,225.2c0-1.5,0.2-2.6,0.9-3.4c0.2-0.2,1.4-1.6,2.7-1.3c1.3,0.3,2.3,4.6,3.9,4.6
				c2.4-0.4,3.4-0.4,4.7-2c2-2.3,4.1-4.2,5.6-5.1c1.7-1,2.7-2.1,3.6-2.6c3.2-1.9,4.6-2.2,6.2-2.5c1.9-0.4,5.2-1.3,7.6-1.1
				c2.1,0.2,8.4,0,11.2,0.1l47.4,0.2c4.8-4.9-30.4-4.4-32.9-4.4l-20.9-0.5c-4.1,0-10.2,1-14.2,2l-18.4,8.3c-3.7,0.9-7.2-1.1-11-1.1
				h-3.9v2.2v1.7V241l4.3,0c1.7,0,2-0.2,3.6,0L216.5,225.2z"/>
			<path d="M283.5,208c0-1.3-1.1-2.4-2.4-2.4c-1.3,0-2.4,1.1-2.4,2.4c0,1.3,1.1,2.4,2.4,2.4l0,0C282.4,210.4,283.5,209.3,283.5,208z
				"/>
			<path d="M313.8,215.8L313.8,215.8c0-5.6-4.6-10.2-10.2-10.2h-12.2c-1.3,0-2.4,1.1-2.4,2.4c0,1.3,1.1,2.4,2.4,2.4h12.2
				c3,0,5.4,2.4,5.4,5.4v0c0,3-2.4,5.4-5.4,5.4h-25.3c-0.4-1.7-1.2-3.2-2.5-4.4l0,0c-1.8-1.8-4.2-2.8-6.7-2.8
				c-2.4,0-4.8,0.9-6.7,2.8l-13.8,13.8c-0.9,0.9-0.9,2.4,0,3.4c0.9,0.9,2.4,0.9,3.4,0l13.8-13.8c1.8-1.8,4.8-1.8,6.6,0l0,0
				c0.9,0.9,1.3,2,1.3,3.3c0,0,0,0.1,0,0.1c0,0,0,0.1,0,0.1c0,1.2-0.5,2.2-1.3,3l-16.3,16c-0.4,0.4-1,0.7-1.6,0.8l-19.1,3.5
				c-3.1,0.6-7.1-4.5-8.6-7c-0.4-0.7-1.2-1.2-2.1-1.2h-12.5v-18.6c0,0,5.6,0,6.3,0c1.1,0,3.3-0.1,3.7,0.2c0,0,0.2,0.2,0.2,1.1
				c0,1.1,0.7,2,1.8,2.3c1,0.3,2.1-0.1,2.7-1.1c0.1-0.1,7.8-12.4,17.9-12.4h25.3c1.3,0,2.4-1.1,2.4-2.4c0-1.3-1.1-2.4-2.4-2.4h-25.4
				c-8.9,0-15.9,6.8-19.5,11.2c-1.8-1.5-4.3-1.4-7-1.4c-0.7,0-21.5,0-21.5,0c-1.3,0-2.4,1.1-2.4,2.4v23.4c0,1.3,1.1,2.4,2.4,2.4
				h26.6c1.9,2.8,6.8,9.2,12.8,8.2l19.1-3.5c1.5-0.3,3-1,4.1-2.1l16.3-16.1c1.2-1.2,2-2.6,2.4-4.1h25.4
				C309.3,226,313.8,221.4,313.8,215.8z M199.4,220.3h8.2v18.6h-8.2V220.3z"/>
		</g>
	</g>
</g>
</svg>
